<svg xmlns="http://www.w3.org/2000/svg" xmlns:xlink="http://www.w3.org/1999/xlink" width="500" zoomAndPan="magnify" viewBox="0 0 375 374.999991" height="500" preserveAspectRatio="xMidYMid meet" version="1.0"><defs><g/></defs><g fill="#ffd450" fill-opacity="1"><g transform="translate(87.059241, 176.552664)"><g><path d="M 15.859375 -33.125 C 20.753906 -33.125 25.054688 -31.90625 28.765625 -29.46875 L 25.640625 -22.96875 C 23.921875 -23.96875 22.078125 -24.785156 20.109375 -25.421875 C 18.148438 -26.066406 16.5 -26.390625 15.15625 -26.390625 C 12.757812 -26.390625 11.5625 -25.59375 11.5625 -24 C 11.5625 -22.96875 12.148438 -22.140625 13.328125 -21.515625 C 14.515625 -20.890625 15.957031 -20.351562 17.65625 -19.90625 C 19.351562 -19.457031 21.050781 -18.910156 22.75 -18.265625 C 24.457031 -17.628906 25.898438 -16.59375 27.078125 -15.15625 C 28.265625 -13.71875 28.859375 -11.910156 28.859375 -9.734375 C 28.859375 -6.578125 27.625 -4.117188 25.15625 -2.359375 C 22.695312 -0.597656 19.566406 0.28125 15.765625 0.28125 C 13.054688 0.28125 10.375 -0.1875 7.71875 -1.125 C 5.070312 -2.0625 2.765625 -3.335938 0.796875 -4.953125 L 4.015625 -11.375 C 5.671875 -9.9375 7.617188 -8.753906 9.859375 -7.828125 C 12.109375 -6.910156 14.109375 -6.453125 15.859375 -6.453125 C 17.203125 -6.453125 18.242188 -6.691406 18.984375 -7.171875 C 19.734375 -7.660156 20.109375 -8.375 20.109375 -9.3125 C 20.109375 -10.21875 19.679688 -10.972656 18.828125 -11.578125 C 17.972656 -12.179688 16.90625 -12.628906 15.625 -12.921875 C 14.34375 -13.222656 12.953125 -13.625 11.453125 -14.125 C 9.960938 -14.625 8.578125 -15.171875 7.296875 -15.765625 C 6.015625 -16.359375 4.945312 -17.300781 4.09375 -18.59375 C 3.238281 -19.882812 2.8125 -21.4375 2.8125 -23.25 C 2.8125 -26.238281 4.003906 -28.628906 6.390625 -30.421875 C 8.773438 -32.222656 11.929688 -33.125 15.859375 -33.125 Z M 15.859375 -33.125 "/></g></g></g><g fill="#ffd450" fill-opacity="1"><g transform="translate(124.348733, 176.552664)"><g><path d="M 28.90625 -26.203125 L 11.609375 -26.203125 L 11.609375 -19.6875 L 27.234375 -19.6875 L 27.234375 -13.140625 L 11.609375 -13.140625 L 11.609375 -6.546875 L 29.421875 -6.546875 L 29.421875 0 L 3.28125 0 L 3.28125 -32.75 L 28.90625 -32.75 Z M 28.90625 -26.203125 "/></g></g></g><g fill="#ffd450" fill-opacity="1"><g transform="translate(163.041763, 176.552664)"><g><path d="M 23.015625 0 L 18.15625 -9.21875 L 11.609375 -9.21875 L 11.609375 0 L 3.28125 0 L 3.28125 -32.75 L 17.921875 -32.75 C 22.253906 -32.75 25.601562 -31.757812 27.96875 -29.78125 C 30.34375 -27.800781 31.53125 -24.984375 31.53125 -21.328125 C 31.53125 -16.273438 29.550781 -12.769531 25.59375 -10.8125 L 32.46875 0 Z M 11.609375 -15.765625 L 17.921875 -15.765625 C 19.722656 -15.765625 21.125 -16.21875 22.125 -17.125 C 23.125 -18.03125 23.625 -19.335938 23.625 -21.046875 C 23.625 -22.734375 23.125 -24.015625 22.125 -24.890625 C 21.125 -25.765625 19.722656 -26.203125 17.921875 -26.203125 L 11.609375 -26.203125 Z M 11.609375 -15.765625 "/></g></g></g><g fill="#ffd450" fill-opacity="1"><g transform="translate(204.074033, 176.552664)"><g><path d="M 25.03125 -16.65625 L 32.234375 -16.65625 L 32.234375 -3.890625 C 30.453125 -2.640625 28.304688 -1.613281 25.796875 -0.8125 C 23.285156 -0.0195312 20.894531 0.375 18.625 0.375 C 13.632812 0.375 9.46875 -1.222656 6.125 -4.421875 C 2.789062 -7.617188 1.125 -11.601562 1.125 -16.375 C 1.125 -21.113281 2.835938 -25.070312 6.265625 -28.25 C 9.703125 -31.4375 14.007812 -33.03125 19.1875 -33.03125 C 21.613281 -33.03125 24.023438 -32.59375 26.421875 -31.71875 C 28.828125 -30.84375 30.875 -29.65625 32.5625 -28.15625 L 27.875 -22.5 C 26.695312 -23.59375 25.328125 -24.457031 23.765625 -25.09375 C 22.203125 -25.738281 20.660156 -26.0625 19.140625 -26.0625 C 16.453125 -26.0625 14.195312 -25.128906 12.375 -23.265625 C 10.550781 -21.410156 9.640625 -19.113281 9.640625 -16.375 C 9.640625 -13.59375 10.554688 -11.265625 12.390625 -9.390625 C 14.234375 -7.523438 16.515625 -6.59375 19.234375 -6.59375 C 20.972656 -6.59375 22.90625 -7.125 25.03125 -8.1875 Z M 25.03125 -16.65625 "/></g></g></g><g fill="#ffd450" fill-opacity="1"><g transform="translate(245.995199, 176.552664)"><g><path d="M 11.609375 0 L 3.28125 0 L 3.28125 -32.75 L 11.609375 -32.75 Z M 11.609375 0 "/></g></g></g><g fill="#ffd450" fill-opacity="1"><g transform="translate(268.032944, 176.552664)"><g><path d="M 18.8125 -33.03125 C 23.894531 -33.03125 28.117188 -31.445312 31.484375 -28.28125 C 34.847656 -25.113281 36.53125 -21.160156 36.53125 -16.421875 C 36.53125 -11.648438 34.835938 -7.65625 31.453125 -4.4375 C 28.078125 -1.226562 23.863281 0.375 18.8125 0.375 C 13.757812 0.375 9.546875 -1.222656 6.171875 -4.421875 C 2.804688 -7.617188 1.125 -11.617188 1.125 -16.421875 C 1.125 -21.191406 2.804688 -25.148438 6.171875 -28.296875 C 9.546875 -31.453125 13.757812 -33.03125 18.8125 -33.03125 Z M 18.90625 -26.0625 C 16.34375 -26.0625 14.15625 -25.128906 12.34375 -23.265625 C 10.539062 -21.410156 9.640625 -19.109375 9.640625 -16.359375 C 9.640625 -13.617188 10.550781 -11.304688 12.375 -9.421875 C 14.195312 -7.535156 16.367188 -6.59375 18.890625 -6.59375 C 21.421875 -6.59375 23.566406 -7.535156 25.328125 -9.421875 C 27.085938 -11.304688 27.96875 -13.617188 27.96875 -16.359375 C 27.96875 -19.109375 27.085938 -21.410156 25.328125 -23.265625 C 23.566406 -25.128906 21.425781 -26.0625 18.90625 -26.0625 Z M 18.90625 -26.0625 "/></g></g></g><g fill="#ffd450" fill-opacity="1"><g transform="translate(80.664794, 220.531186)"><g><path d="M 18.625 -33.03125 C 21.050781 -33.03125 23.441406 -32.53125 25.796875 -31.53125 C 28.148438 -30.53125 30.15625 -29.1875 31.8125 -27.5 L 27 -21.796875 C 25.9375 -23.109375 24.660156 -24.144531 23.171875 -24.90625 C 21.691406 -25.675781 20.222656 -26.0625 18.765625 -26.0625 C 16.171875 -26.0625 14 -25.144531 12.25 -23.3125 C 10.507812 -21.488281 9.640625 -19.238281 9.640625 -16.5625 C 9.640625 -13.8125 10.507812 -11.515625 12.25 -9.671875 C 14 -7.835938 16.171875 -6.921875 18.765625 -6.921875 C 20.128906 -6.921875 21.550781 -7.265625 23.03125 -7.953125 C 24.519531 -8.640625 25.84375 -9.578125 27 -10.765625 L 31.859375 -5.609375 C 30.078125 -3.804688 27.976562 -2.359375 25.5625 -1.265625 C 23.144531 -0.171875 20.738281 0.375 18.34375 0.375 C 13.414062 0.375 9.3125 -1.226562 6.03125 -4.4375 C 2.757812 -7.65625 1.125 -11.664062 1.125 -16.46875 C 1.125 -21.175781 2.789062 -25.113281 6.125 -28.28125 C 9.46875 -31.445312 13.632812 -33.03125 18.625 -33.03125 Z M 18.625 -33.03125 "/></g></g></g><g fill="#ffd450" fill-opacity="1"><g transform="translate(120.199946, 220.531186)"><g><path d="M 18.8125 -33.03125 C 23.894531 -33.03125 28.117188 -31.445312 31.484375 -28.28125 C 34.847656 -25.113281 36.53125 -21.160156 36.53125 -16.421875 C 36.53125 -11.648438 34.835938 -7.65625 31.453125 -4.4375 C 28.078125 -1.226562 23.863281 0.375 18.8125 0.375 C 13.757812 0.375 9.546875 -1.222656 6.171875 -4.421875 C 2.804688 -7.617188 1.125 -11.617188 1.125 -16.421875 C 1.125 -21.191406 2.804688 -25.148438 6.171875 -28.296875 C 9.546875 -31.453125 13.757812 -33.03125 18.8125 -33.03125 Z M 18.90625 -26.0625 C 16.34375 -26.0625 14.15625 -25.128906 12.34375 -23.265625 C 10.539062 -21.410156 9.640625 -19.109375 9.640625 -16.359375 C 9.640625 -13.617188 10.550781 -11.304688 12.375 -9.421875 C 14.195312 -7.535156 16.367188 -6.59375 18.890625 -6.59375 C 21.421875 -6.59375 23.566406 -7.535156 25.328125 -9.421875 C 27.085938 -11.304688 27.96875 -13.617188 27.96875 -16.359375 C 27.96875 -19.109375 27.085938 -21.410156 25.328125 -23.265625 C 23.566406 -25.128906 21.425781 -26.0625 18.90625 -26.0625 Z M 18.90625 -26.0625 "/></g></g></g><g fill="#ffd450" fill-opacity="1"><g transform="translate(165.021756, 220.531186)"><g><path d="M 23.015625 0 L 18.15625 -9.21875 L 11.609375 -9.21875 L 11.609375 0 L 3.28125 0 L 3.28125 -32.75 L 17.921875 -32.75 C 22.253906 -32.75 25.601562 -31.757812 27.96875 -29.78125 C 30.34375 -27.800781 31.53125 -24.984375 31.53125 -21.328125 C 31.53125 -16.273438 29.550781 -12.769531 25.59375 -10.8125 L 32.46875 0 Z M 11.609375 -15.765625 L 17.921875 -15.765625 C 19.722656 -15.765625 21.125 -16.21875 22.125 -17.125 C 23.125 -18.03125 23.625 -19.335938 23.625 -21.046875 C 23.625 -22.734375 23.125 -24.015625 22.125 -24.890625 C 21.125 -25.765625 19.722656 -26.203125 17.921875 -26.203125 L 11.609375 -26.203125 Z M 11.609375 -15.765625 "/></g></g></g><g fill="#ffd450" fill-opacity="1"><g transform="translate(206.05402, 220.531186)"><g><path d="M 28.296875 -26.0625 L 18.4375 -26.0625 L 18.4375 0 L 10.109375 0 L 10.109375 -26.0625 L 0.328125 -26.0625 L 0.328125 -32.796875 L 28.296875 -32.796875 Z M 28.296875 -26.0625 "/></g></g></g><g fill="#ffd450" fill-opacity="1"><g transform="translate(241.799627, 220.531186)"><g><path d="M 28.90625 -26.203125 L 11.609375 -26.203125 L 11.609375 -19.6875 L 27.234375 -19.6875 L 27.234375 -13.140625 L 11.609375 -13.140625 L 11.609375 -6.546875 L 29.421875 -6.546875 L 29.421875 0 L 3.28125 0 L 3.28125 -32.75 L 28.90625 -32.75 Z M 28.90625 -26.203125 "/></g></g></g><g fill="#ffd450" fill-opacity="1"><g transform="translate(280.492665, 220.531186)"><g><path d="M 29.9375 -27.40625 L 12.4375 -6.59375 L 30.21875 -6.59375 L 30.21875 0 L 1.3125 0 L 1.3125 -5.328125 L 18.859375 -26.15625 L 1.921875 -26.15625 L 1.921875 -32.75 L 29.9375 -32.75 Z M 29.9375 -27.40625 "/></g></g></g><g fill="#ffd450" fill-opacity="1"><g transform="translate(67.18271, 267.578415)"><g><path d="M 6.171875 0 L 7.585938 0 C 8.214844 0 8.527344 -0.105469 8.683594 -0.730469 L 11.457031 -11.117188 C 11.691406 -12.007812 11.875 -13.050781 11.925781 -14.046875 L 12.085938 -14.046875 C 12.136719 -13.050781 12.320312 -11.925781 12.527344 -11.089844 L 15.25 -0.707031 C 15.378906 -0.128906 15.746094 0 16.347656 0 L 17.785156 0 C 18.386719 0 18.726562 -0.105469 18.886719 -0.730469 L 23.203125 -17.707031 C 23.359375 -18.308594 23.28125 -18.570312 22.625 -18.570312 L 21.03125 -18.570312 C 20.296875 -18.570312 19.984375 -18.441406 19.851562 -17.785156 L 17.761719 -8.003906 C 17.550781 -6.984375 17.34375 -4.945312 17.316406 -4.523438 L 17.160156 -4.523438 C 17.105469 -5.023438 16.898438 -6.90625 16.582031 -8.03125 L 14.019531 -17.707031 C 13.863281 -18.363281 13.496094 -18.492188 12.816406 -18.492188 L 11.429688 -18.492188 C 10.75 -18.492188 10.410156 -18.363281 10.226562 -17.707031 L 7.585938 -8.03125 C 7.324219 -7.011719 7.089844 -5.074219 7.0625 -4.523438 L 6.90625 -4.523438 C 6.878906 -4.96875 6.671875 -7.113281 6.488281 -8.03125 L 4.34375 -17.785156 C 4.210938 -18.441406 3.898438 -18.570312 3.164062 -18.570312 L 1.335938 -18.570312 C 0.679688 -18.570312 0.601562 -18.308594 0.757812 -17.707031 L 5.074219 -0.707031 C 5.207031 -0.105469 5.570312 0 6.171875 0 Z M 6.171875 0 "/></g></g></g><g fill="#ffd450" fill-opacity="1"><g transform="translate(94.278668, 267.578415)"><g><path d="M 2.902344 0 L 13.601562 0 C 14.253906 0 14.492188 -0.234375 14.492188 -0.890625 L 14.492188 -2.171875 C 14.492188 -2.824219 14.253906 -3.058594 13.601562 -3.058594 L 5.285156 -3.058594 L 5.285156 -7.875 L 12.058594 -7.875 C 12.738281 -7.875 12.949219 -8.109375 12.949219 -8.761719 L 12.949219 -10.042969 C 12.949219 -10.699219 12.738281 -10.933594 12.058594 -10.933594 L 5.285156 -10.933594 L 5.285156 -15.511719 L 13.3125 -15.511719 C 13.96875 -15.511719 14.203125 -15.746094 14.203125 -16.402344 L 14.203125 -17.683594 C 14.203125 -18.335938 13.96875 -18.570312 13.3125 -18.570312 L 2.902344 -18.570312 C 2.222656 -18.570312 2.015625 -18.335938 2.015625 -17.683594 L 2.015625 -0.890625 C 2.015625 -0.234375 2.222656 0 2.902344 0 Z M 2.902344 0 "/></g></g></g><g fill="#ffd450" fill-opacity="1"><g transform="translate(112.95329, 267.578415)"><g><path d="M 2.902344 0 L 10.332031 0 C 13.730469 0 16.21875 -1.804688 16.21875 -5.101562 C 16.21875 -7.453125 15.222656 -9.023438 13.550781 -9.625 L 13.550781 -9.730469 C 14.910156 -10.542969 15.511719 -11.796875 15.511719 -13.679688 C 15.511719 -16.820312 13.523438 -18.570312 10.175781 -18.570312 L 2.902344 -18.570312 C 2.222656 -18.570312 2.015625 -18.335938 2.015625 -17.683594 L 2.015625 -0.890625 C 2.015625 -0.234375 2.222656 0 2.902344 0 Z M 5.285156 -10.90625 L 5.285156 -15.511719 L 9.757812 -15.511719 C 11.324219 -15.511719 12.164062 -14.753906 12.164062 -13.210938 C 12.164062 -11.640625 11.324219 -10.90625 9.757812 -10.90625 Z M 5.285156 -3.058594 L 5.285156 -7.925781 L 10.226562 -7.925781 C 11.875 -7.925781 12.738281 -7.0625 12.738281 -5.46875 C 12.738281 -3.871094 11.875 -3.058594 10.226562 -3.058594 Z M 5.285156 -3.058594 "/></g></g></g><g fill="#ffd450" fill-opacity="1"><g transform="translate(133.484815, 267.578415)"><g/></g></g><g fill="#ffd450" fill-opacity="1"><g transform="translate(142.352, 267.578415)"><g><path d="M 2.902344 0 L 8.761719 0 C 13.628906 0 16.347656 -2.640625 16.347656 -6.90625 L 16.347656 -11.667969 C 16.347656 -15.929688 13.628906 -18.570312 8.761719 -18.570312 L 2.902344 -18.570312 C 2.222656 -18.570312 2.015625 -18.335938 2.015625 -17.683594 L 2.015625 -0.890625 C 2.015625 -0.234375 2.222656 0 2.902344 0 Z M 5.285156 -3.058594 L 5.285156 -15.511719 L 8.789062 -15.511719 C 11.5625 -15.511719 13.078125 -14.175781 13.078125 -11.691406 L 13.078125 -6.878906 C 13.078125 -4.394531 11.535156 -3.058594 8.789062 -3.058594 Z M 5.285156 -3.058594 "/></g></g></g><g fill="#ffd450" fill-opacity="1"><g transform="translate(163.301954, 267.578415)"><g><path d="M 2.902344 0 L 13.601562 0 C 14.253906 0 14.492188 -0.234375 14.492188 -0.890625 L 14.492188 -2.171875 C 14.492188 -2.824219 14.253906 -3.058594 13.601562 -3.058594 L 5.285156 -3.058594 L 5.285156 -7.875 L 12.058594 -7.875 C 12.738281 -7.875 12.949219 -8.109375 12.949219 -8.761719 L 12.949219 -10.042969 C 12.949219 -10.699219 12.738281 -10.933594 12.058594 -10.933594 L 5.285156 -10.933594 L 5.285156 -15.511719 L 13.3125 -15.511719 C 13.96875 -15.511719 14.203125 -15.746094 14.203125 -16.402344 L 14.203125 -17.683594 C 14.203125 -18.335938 13.96875 -18.570312 13.3125 -18.570312 L 2.902344 -18.570312 C 2.222656 -18.570312 2.015625 -18.335938 2.015625 -17.683594 L 2.015625 -0.890625 C 2.015625 -0.234375 2.222656 0 2.902344 0 Z M 2.902344 0 "/></g></g></g><g fill="#ffd450" fill-opacity="1"><g transform="translate(181.976572, 267.578415)"><g><path d="M 7.875 0 L 9.257812 0 C 9.859375 0 10.148438 -0.128906 10.359375 -0.730469 L 16.636719 -17.707031 C 16.84375 -18.285156 16.6875 -18.570312 16.058594 -18.570312 L 14.777344 -18.570312 C 13.679688 -18.570312 13.367188 -18.414062 13.15625 -17.785156 L 9.390625 -6.617188 C 8.972656 -5.386719 8.738281 -3.949219 8.710938 -3.871094 L 8.554688 -3.871094 C 8.527344 -3.949219 8.265625 -5.414062 7.875 -6.644531 L 4.027344 -17.785156 C 3.820312 -18.414062 3.53125 -18.570312 2.40625 -18.570312 L 1.097656 -18.570312 C 0.445312 -18.570312 0.289062 -18.285156 0.496094 -17.707031 L 6.773438 -0.707031 C 6.984375 -0.128906 7.273438 0 7.875 0 Z M 7.875 0 "/></g></g></g><g fill="#ffd450" fill-opacity="1"><g transform="translate(202.220408, 267.578415)"><g><path d="M 2.902344 0 L 13.601562 0 C 14.253906 0 14.492188 -0.234375 14.492188 -0.890625 L 14.492188 -2.171875 C 14.492188 -2.824219 14.253906 -3.058594 13.601562 -3.058594 L 5.285156 -3.058594 L 5.285156 -7.875 L 12.058594 -7.875 C 12.738281 -7.875 12.949219 -8.109375 12.949219 -8.761719 L 12.949219 -10.042969 C 12.949219 -10.699219 12.738281 -10.933594 12.058594 -10.933594 L 5.285156 -10.933594 L 5.285156 -15.511719 L 13.3125 -15.511719 C 13.96875 -15.511719 14.203125 -15.746094 14.203125 -16.402344 L 14.203125 -17.683594 C 14.203125 -18.335938 13.96875 -18.570312 13.3125 -18.570312 L 2.902344 -18.570312 C 2.222656 -18.570312 2.015625 -18.335938 2.015625 -17.683594 L 2.015625 -0.890625 C 2.015625 -0.234375 2.222656 0 2.902344 0 Z M 2.902344 0 "/></g></g></g><g fill="#ffd450" fill-opacity="1"><g transform="translate(220.895026, 267.578415)"><g><path d="M 2.902344 0 L 12.789062 0 C 13.472656 0 13.679688 -0.234375 13.679688 -0.890625 L 13.679688 -2.171875 C 13.679688 -2.824219 13.472656 -3.058594 12.789062 -3.058594 L 5.285156 -3.058594 L 5.285156 -17.683594 C 5.285156 -18.335938 5.074219 -18.570312 4.394531 -18.570312 L 2.902344 -18.570312 C 2.222656 -18.570312 2.015625 -18.335938 2.015625 -17.683594 L 2.015625 -0.890625 C 2.015625 -0.234375 2.222656 0 2.902344 0 Z M 2.902344 0 "/></g></g></g><g fill="#ffd450" fill-opacity="1"><g transform="translate(238.235857, 267.578415)"><g><path d="M 8.945312 0.390625 C 13.757812 0.390625 16.425781 -2.222656 16.425781 -6.433594 L 16.425781 -12.136719 C 16.425781 -16.347656 13.757812 -18.964844 8.945312 -18.964844 C 4.132812 -18.964844 1.464844 -16.347656 1.464844 -12.136719 L 1.464844 -6.433594 C 1.464844 -2.222656 4.132812 0.390625 8.945312 0.390625 Z M 8.945312 -2.667969 C 6.25 -2.667969 4.761719 -3.976562 4.761719 -6.410156 L 4.761719 -12.164062 C 4.761719 -14.59375 6.25 -15.902344 8.945312 -15.902344 C 11.640625 -15.902344 13.128906 -14.59375 13.128906 -12.164062 L 13.128906 -6.410156 C 13.128906 -3.976562 11.640625 -2.667969 8.945312 -2.667969 Z M 8.945312 -2.667969 "/></g></g></g><g fill="#ffd450" fill-opacity="1"><g transform="translate(259.264288, 267.578415)"><g><path d="M 2.902344 0 L 4.394531 0 C 5.074219 0 5.285156 -0.234375 5.285156 -0.890625 L 5.285156 -6.460938 L 9.835938 -6.460938 C 13.628906 -6.460938 16.007812 -8.710938 16.007812 -12.503906 C 16.007812 -16.296875 13.628906 -18.570312 9.835938 -18.570312 L 2.902344 -18.570312 C 2.222656 -18.570312 2.015625 -18.335938 2.015625 -17.683594 L 2.015625 -0.890625 C 2.015625 -0.234375 2.222656 0 2.902344 0 Z M 5.285156 -9.519531 L 5.285156 -15.511719 L 9.519531 -15.511719 C 11.429688 -15.511719 12.582031 -14.386719 12.582031 -12.503906 C 12.582031 -10.621094 11.429688 -9.519531 9.519531 -9.519531 Z M 5.285156 -9.519531 "/></g></g></g><g fill="#ffd450" fill-opacity="1"><g transform="translate(279.325031, 267.578415)"><g><path d="M 2.902344 0 L 13.601562 0 C 14.253906 0 14.492188 -0.234375 14.492188 -0.890625 L 14.492188 -2.171875 C 14.492188 -2.824219 14.253906 -3.058594 13.601562 -3.058594 L 5.285156 -3.058594 L 5.285156 -7.875 L 12.058594 -7.875 C 12.738281 -7.875 12.949219 -8.109375 12.949219 -8.761719 L 12.949219 -10.042969 C 12.949219 -10.699219 12.738281 -10.933594 12.058594 -10.933594 L 5.285156 -10.933594 L 5.285156 -15.511719 L 13.3125 -15.511719 C 13.96875 -15.511719 14.203125 -15.746094 14.203125 -16.402344 L 14.203125 -17.683594 C 14.203125 -18.335938 13.96875 -18.570312 13.3125 -18.570312 L 2.902344 -18.570312 C 2.222656 -18.570312 2.015625 -18.335938 2.015625 -17.683594 L 2.015625 -0.890625 C 2.015625 -0.234375 2.222656 0 2.902344 0 Z M 2.902344 0 "/></g></g></g><g fill="#ffd450" fill-opacity="1"><g transform="translate(297.999649, 267.578415)"><g><path d="M 2.902344 0 L 4.394531 0 C 5.074219 0 5.285156 -0.234375 5.285156 -0.890625 L 5.285156 -7.0625 L 7.21875 -7.0625 C 9.023438 -7.0625 9.652344 -6.671875 10.359375 -5.230469 L 12.527344 -0.785156 C 12.84375 -0.128906 13.210938 0 14.308594 0 L 15.824219 0 C 16.480469 0 16.558594 -0.390625 16.269531 -0.890625 L 13.390625 -6.410156 C 13.15625 -6.878906 12.894531 -7.246094 12.582031 -7.535156 C 14.726562 -8.265625 16.007812 -10.097656 16.007812 -12.816406 C 16.007812 -16.425781 13.757812 -18.570312 10.148438 -18.570312 L 2.902344 -18.570312 C 2.222656 -18.570312 2.015625 -18.335938 2.015625 -17.683594 L 2.015625 -0.890625 C 2.015625 -0.234375 2.222656 0 2.902344 0 Z M 5.285156 -10.121094 L 5.285156 -15.511719 L 9.835938 -15.511719 C 11.585938 -15.511719 12.582031 -14.542969 12.582031 -12.816406 C 12.582031 -11.0625 11.585938 -10.121094 9.835938 -10.121094 Z M 5.285156 -10.121094 "/></g></g></g></svg>