<svg xmlns="http://www.w3.org/2000/svg" xmlns:xlink="http://www.w3.org/1999/xlink" width="500" zoomAndPan="magnify" viewBox="0 0 375 374.999991" height="500" preserveAspectRatio="xMidYMid meet" version="1.0"><defs><g/><clipPath id="id1"><path d="M 156.566406 60.414062 L 218.066406 60.414062 L 218.066406 173.664062 L 156.566406 173.664062 Z M 156.566406 60.414062 " clip-rule="nonzero"/></clipPath><clipPath id="id2"><path d="M 218.070312 81.246094 L 218.070312 94.925781 L 217.492188 95.3125 L 206.449219 102.660156 L 206.449219 87.8125 L 187.5 74.933594 L 175.820312 82.707031 L 171.867188 85.332031 L 168.558594 87.535156 L 168.558594 114.140625 L 175.820312 110.679688 L 188.550781 104.609375 L 175.820312 113.078125 L 168.558594 117.910156 L 156.570312 125.886719 L 156.570312 80.933594 L 161.027344 77.96875 L 168.554688 72.957031 L 175.816406 68.125 L 176.652344 67.566406 L 187.40625 60.414062 L 198.25 67.78125 L 206.449219 73.351562 Z M 212.308594 112.808594 L 218.070312 116.726562 L 218.070312 153.082031 L 206.449219 160.8125 L 197.980469 166.449219 L 187.136719 173.664062 L 176.476562 166.417969 L 175.816406 165.972656 L 168.554688 161.035156 L 156.570312 152.894531 L 156.570312 135.847656 L 168.554688 127.871094 L 175.816406 123.039062 L 201.859375 105.714844 L 204.84375 107.738281 L 206.449219 108.832031 Z M 206.449219 116.707031 L 175.820312 137.089844 L 175.820312 127.050781 L 168.558594 131.878906 L 168.558594 146.457031 L 175.820312 151.394531 L 187.320312 159.207031 L 206.449219 146.476562 Z M 206.449219 116.707031 " clip-rule="nonzero"/></clipPath><linearGradient x1="0.0000112417" gradientTransform="matrix(0.238062, 0, 0, 0.238924, 156.571031, 60.413479)" y1="237" x2="258.318172" gradientUnits="userSpaceOnUse" y2="237" id="id3"><stop stop-opacity="1" stop-color="rgb(77.999878%, 56.098938%, 23.498535%)" offset="0"/><stop stop-opacity="1" stop-color="rgb(78.106689%, 56.260681%, 23.655701%)" offset="0.0078125"/><stop stop-opacity="1" stop-color="rgb(78.321838%, 56.584167%, 23.971558%)" offset="0.015625"/><stop stop-opacity="1" stop-color="rgb(78.535461%, 56.907654%, 24.285889%)" offset="0.0234375"/><stop stop-opacity="1" stop-color="rgb(78.75061%, 57.229614%, 24.601746%)" offset="0.03125"/><stop stop-opacity="1" stop-color="rgb(78.965759%, 57.553101%, 24.916077%)" offset="0.0390625"/><stop stop-opacity="1" stop-color="rgb(79.180908%, 57.876587%, 25.231934%)" offset="0.046875"/><stop stop-opacity="1" stop-color="rgb(79.396057%, 58.200073%, 25.546265%)" offset="0.0546875"/><stop stop-opacity="1" stop-color="rgb(79.611206%, 58.52356%, 25.862122%)" offset="0.0625"/><stop stop-opacity="1" stop-color="rgb(79.826355%, 58.84552%, 26.176453%)" offset="0.0703125"/><stop stop-opacity="1" stop-color="rgb(80.041504%, 59.169006%, 26.49231%)" offset="0.078125"/><stop stop-opacity="1" stop-color="rgb(80.256653%, 59.492493%, 26.806641%)" offset="0.0859375"/><stop stop-opacity="1" stop-color="rgb(80.471802%, 59.815979%, 27.122498%)" offset="0.09375"/><stop stop-opacity="1" stop-color="rgb(80.686951%, 60.139465%, 27.436829%)" offset="0.101562"/><stop stop-opacity="1" stop-color="rgb(80.9021%, 60.461426%, 27.75116%)" offset="0.109375"/><stop stop-opacity="1" stop-color="rgb(81.117249%, 60.784912%, 28.067017%)" offset="0.117188"/><stop stop-opacity="1" stop-color="rgb(81.332397%, 61.108398%, 28.381348%)" offset="0.125"/><stop stop-opacity="1" stop-color="rgb(81.547546%, 61.431885%, 28.697205%)" offset="0.132812"/><stop stop-opacity="1" stop-color="rgb(81.762695%, 61.755371%, 29.011536%)" offset="0.140625"/><stop stop-opacity="1" stop-color="rgb(81.977844%, 62.077332%, 29.327393%)" offset="0.148438"/><stop stop-opacity="1" stop-color="rgb(82.191467%, 62.400818%, 29.641724%)" offset="0.15625"/><stop stop-opacity="1" stop-color="rgb(82.406616%, 62.724304%, 29.957581%)" offset="0.164062"/><stop stop-opacity="1" stop-color="rgb(82.621765%, 63.047791%, 30.271912%)" offset="0.171875"/><stop stop-opacity="1" stop-color="rgb(82.836914%, 63.369751%, 30.587769%)" offset="0.179688"/><stop stop-opacity="1" stop-color="rgb(83.052063%, 63.693237%, 30.9021%)" offset="0.1875"/><stop stop-opacity="1" stop-color="rgb(83.267212%, 64.016724%, 31.217957%)" offset="0.195312"/><stop stop-opacity="1" stop-color="rgb(83.482361%, 64.34021%, 31.532288%)" offset="0.203125"/><stop stop-opacity="1" stop-color="rgb(83.69751%, 64.663696%, 31.846619%)" offset="0.210938"/><stop stop-opacity="1" stop-color="rgb(83.912659%, 64.985657%, 32.162476%)" offset="0.21875"/><stop stop-opacity="1" stop-color="rgb(84.127808%, 65.309143%, 32.476807%)" offset="0.226563"/><stop stop-opacity="1" stop-color="rgb(84.342957%, 65.632629%, 32.792664%)" offset="0.234375"/><stop stop-opacity="1" stop-color="rgb(84.558105%, 65.956116%, 33.106995%)" offset="0.242188"/><stop stop-opacity="1" stop-color="rgb(84.773254%, 66.279602%, 33.422852%)" offset="0.25"/><stop stop-opacity="1" stop-color="rgb(84.988403%, 66.601562%, 33.737183%)" offset="0.257812"/><stop stop-opacity="1" stop-color="rgb(85.203552%, 66.925049%, 34.05304%)" offset="0.265625"/><stop stop-opacity="1" stop-color="rgb(85.418701%, 67.248535%, 34.367371%)" offset="0.273438"/><stop stop-opacity="1" stop-color="rgb(85.63385%, 67.572021%, 34.683228%)" offset="0.28125"/><stop stop-opacity="1" stop-color="rgb(85.848999%, 67.895508%, 34.997559%)" offset="0.289062"/><stop stop-opacity="1" stop-color="rgb(86.062622%, 68.217468%, 35.313416%)" offset="0.296875"/><stop stop-opacity="1" stop-color="rgb(86.277771%, 68.540955%, 35.627747%)" offset="0.304688"/><stop stop-opacity="1" stop-color="rgb(86.49292%, 68.864441%, 35.942078%)" offset="0.3125"/><stop stop-opacity="1" stop-color="rgb(86.708069%, 69.187927%, 36.257935%)" offset="0.320312"/><stop stop-opacity="1" stop-color="rgb(86.923218%, 69.511414%, 36.572266%)" offset="0.328125"/><stop stop-opacity="1" stop-color="rgb(87.138367%, 69.833374%, 36.888123%)" offset="0.335937"/><stop stop-opacity="1" stop-color="rgb(87.353516%, 70.15686%, 37.202454%)" offset="0.34375"/><stop stop-opacity="1" stop-color="rgb(87.568665%, 70.480347%, 37.518311%)" offset="0.351562"/><stop stop-opacity="1" stop-color="rgb(87.783813%, 70.803833%, 37.832642%)" offset="0.359375"/><stop stop-opacity="1" stop-color="rgb(87.998962%, 71.127319%, 38.148499%)" offset="0.367188"/><stop stop-opacity="1" stop-color="rgb(88.214111%, 71.44928%, 38.46283%)" offset="0.375"/><stop stop-opacity="1" stop-color="rgb(88.42926%, 71.772766%, 38.778687%)" offset="0.382812"/><stop stop-opacity="1" stop-color="rgb(88.644409%, 72.096252%, 39.093018%)" offset="0.390625"/><stop stop-opacity="1" stop-color="rgb(88.859558%, 72.419739%, 39.408875%)" offset="0.398438"/><stop stop-opacity="1" stop-color="rgb(89.074707%, 72.743225%, 39.723206%)" offset="0.40625"/><stop stop-opacity="1" stop-color="rgb(89.289856%, 73.065186%, 40.037537%)" offset="0.414062"/><stop stop-opacity="1" stop-color="rgb(89.505005%, 73.388672%, 40.353394%)" offset="0.421875"/><stop stop-opacity="1" stop-color="rgb(89.718628%, 73.712158%, 40.667725%)" offset="0.429688"/><stop stop-opacity="1" stop-color="rgb(89.933777%, 74.035645%, 40.983582%)" offset="0.4375"/><stop stop-opacity="1" stop-color="rgb(90.148926%, 74.359131%, 41.297913%)" offset="0.445312"/><stop stop-opacity="1" stop-color="rgb(90.364075%, 74.681091%, 41.61377%)" offset="0.453125"/><stop stop-opacity="1" stop-color="rgb(90.579224%, 75.004578%, 41.928101%)" offset="0.460938"/><stop stop-opacity="1" stop-color="rgb(90.794373%, 75.328064%, 42.243958%)" offset="0.46875"/><stop stop-opacity="1" stop-color="rgb(91.009521%, 75.65155%, 42.558289%)" offset="0.476563"/><stop stop-opacity="1" stop-color="rgb(91.22467%, 75.973511%, 42.874146%)" offset="0.484375"/><stop stop-opacity="1" stop-color="rgb(91.439819%, 76.296997%, 43.188477%)" offset="0.492188"/><stop stop-opacity="1" stop-color="rgb(91.654968%, 76.620483%, 43.504333%)" offset="0.5"/><stop stop-opacity="1" stop-color="rgb(91.870117%, 76.94397%, 43.818665%)" offset="0.507812"/><stop stop-opacity="1" stop-color="rgb(92.085266%, 77.267456%, 44.132996%)" offset="0.515625"/><stop stop-opacity="1" stop-color="rgb(92.300415%, 77.589417%, 44.448853%)" offset="0.523438"/><stop stop-opacity="1" stop-color="rgb(92.515564%, 77.912903%, 44.763184%)" offset="0.53125"/><stop stop-opacity="1" stop-color="rgb(92.730713%, 78.236389%, 45.079041%)" offset="0.539062"/><stop stop-opacity="1" stop-color="rgb(92.945862%, 78.559875%, 45.393372%)" offset="0.546875"/><stop stop-opacity="1" stop-color="rgb(93.161011%, 78.883362%, 45.709229%)" offset="0.554688"/><stop stop-opacity="1" stop-color="rgb(93.37616%, 79.205322%, 46.02356%)" offset="0.5625"/><stop stop-opacity="1" stop-color="rgb(93.589783%, 79.528809%, 46.339417%)" offset="0.570312"/><stop stop-opacity="1" stop-color="rgb(93.804932%, 79.852295%, 46.653748%)" offset="0.578125"/><stop stop-opacity="1" stop-color="rgb(94.020081%, 80.175781%, 46.969604%)" offset="0.585938"/><stop stop-opacity="1" stop-color="rgb(94.235229%, 80.499268%, 47.283936%)" offset="0.59375"/><stop stop-opacity="1" stop-color="rgb(94.450378%, 80.821228%, 47.599792%)" offset="0.601562"/><stop stop-opacity="1" stop-color="rgb(94.665527%, 81.144714%, 47.914124%)" offset="0.609375"/><stop stop-opacity="1" stop-color="rgb(94.880676%, 81.468201%, 48.228455%)" offset="0.617188"/><stop stop-opacity="1" stop-color="rgb(95.095825%, 81.791687%, 48.544312%)" offset="0.625"/><stop stop-opacity="1" stop-color="rgb(95.310974%, 82.115173%, 48.858643%)" offset="0.632812"/><stop stop-opacity="1" stop-color="rgb(95.526123%, 82.437134%, 49.1745%)" offset="0.640625"/><stop stop-opacity="1" stop-color="rgb(95.741272%, 82.76062%, 49.488831%)" offset="0.648438"/><stop stop-opacity="1" stop-color="rgb(95.956421%, 83.084106%, 49.804688%)" offset="0.65625"/><stop stop-opacity="1" stop-color="rgb(96.17157%, 83.407593%, 50.119019%)" offset="0.664062"/><stop stop-opacity="1" stop-color="rgb(96.386719%, 83.731079%, 50.434875%)" offset="0.671875"/><stop stop-opacity="1" stop-color="rgb(96.514893%, 83.99353%, 50.709534%)" offset="0.679688"/><stop stop-opacity="1" stop-color="rgb(96.551514%, 84.19342%, 50.946045%)" offset="0.6875"/><stop stop-opacity="1" stop-color="rgb(96.588135%, 84.391785%, 51.18103%)" offset="0.695312"/><stop stop-opacity="1" stop-color="rgb(96.62323%, 84.590149%, 51.416016%)" offset="0.703125"/><stop stop-opacity="1" stop-color="rgb(96.659851%, 84.790039%, 51.651001%)" offset="0.710938"/><stop stop-opacity="1" stop-color="rgb(96.696472%, 84.988403%, 51.885986%)" offset="0.71875"/><stop stop-opacity="1" stop-color="rgb(96.731567%, 85.186768%, 52.120972%)" offset="0.726563"/><stop stop-opacity="1" stop-color="rgb(96.768188%, 85.386658%, 52.355957%)" offset="0.734375"/><stop stop-opacity="1" stop-color="rgb(96.803284%, 85.585022%, 52.589417%)" offset="0.742188"/><stop stop-opacity="1" stop-color="rgb(96.839905%, 85.783386%, 52.824402%)" offset="0.75"/><stop stop-opacity="1" stop-color="rgb(96.875%, 85.983276%, 53.059387%)" offset="0.757812"/><stop stop-opacity="1" stop-color="rgb(96.911621%, 86.181641%, 53.294373%)" offset="0.765625"/><stop stop-opacity="1" stop-color="rgb(96.946716%, 86.381531%, 53.529358%)" offset="0.773437"/><stop stop-opacity="1" stop-color="rgb(96.983337%, 86.579895%, 53.764343%)" offset="0.78125"/><stop stop-opacity="1" stop-color="rgb(97.019958%, 86.778259%, 53.999329%)" offset="0.789062"/><stop stop-opacity="1" stop-color="rgb(97.055054%, 86.978149%, 54.234314%)" offset="0.796875"/><stop stop-opacity="1" stop-color="rgb(97.091675%, 87.176514%, 54.469299%)" offset="0.804687"/><stop stop-opacity="1" stop-color="rgb(97.12677%, 87.374878%, 54.704285%)" offset="0.8125"/><stop stop-opacity="1" stop-color="rgb(97.163391%, 87.574768%, 54.93927%)" offset="0.820312"/><stop stop-opacity="1" stop-color="rgb(97.198486%, 87.773132%, 55.172729%)" offset="0.828125"/><stop stop-opacity="1" stop-color="rgb(97.235107%, 87.971497%, 55.407715%)" offset="0.835937"/><stop stop-opacity="1" stop-color="rgb(97.270203%, 88.171387%, 55.6427%)" offset="0.84375"/><stop stop-opacity="1" stop-color="rgb(97.306824%, 88.369751%, 55.877686%)" offset="0.851562"/><stop stop-opacity="1" stop-color="rgb(97.343445%, 88.568115%, 56.112671%)" offset="0.859375"/><stop stop-opacity="1" stop-color="rgb(97.37854%, 88.768005%, 56.347656%)" offset="0.867187"/><stop stop-opacity="1" stop-color="rgb(97.415161%, 88.96637%, 56.582642%)" offset="0.875"/><stop stop-opacity="1" stop-color="rgb(97.450256%, 89.164734%, 56.817627%)" offset="0.882812"/><stop stop-opacity="1" stop-color="rgb(97.486877%, 89.364624%, 57.052612%)" offset="0.890625"/><stop stop-opacity="1" stop-color="rgb(97.521973%, 89.562988%, 57.287598%)" offset="0.898437"/><stop stop-opacity="1" stop-color="rgb(97.558594%, 89.761353%, 57.521057%)" offset="0.90625"/><stop stop-opacity="1" stop-color="rgb(97.593689%, 89.961243%, 57.756042%)" offset="0.914062"/><stop stop-opacity="1" stop-color="rgb(97.63031%, 90.159607%, 57.991028%)" offset="0.921875"/><stop stop-opacity="1" stop-color="rgb(97.666931%, 90.357971%, 58.226013%)" offset="0.929688"/><stop stop-opacity="1" stop-color="rgb(97.702026%, 90.557861%, 58.460999%)" offset="0.9375"/><stop stop-opacity="1" stop-color="rgb(97.738647%, 90.756226%, 58.695984%)" offset="0.945312"/><stop stop-opacity="1" stop-color="rgb(97.773743%, 90.95459%, 58.930969%)" offset="0.953125"/><stop stop-opacity="1" stop-color="rgb(97.810364%, 91.15448%, 59.165955%)" offset="0.960938"/><stop stop-opacity="1" stop-color="rgb(97.845459%, 91.352844%, 59.40094%)" offset="0.96875"/><stop stop-opacity="1" stop-color="rgb(97.88208%, 91.552734%, 59.635925%)" offset="0.976562"/><stop stop-opacity="1" stop-color="rgb(97.917175%, 91.751099%, 59.869385%)" offset="0.984375"/><stop stop-opacity="1" stop-color="rgb(97.953796%, 91.949463%, 60.10437%)" offset="0.992188"/><stop stop-opacity="1" stop-color="rgb(97.98584%, 92.124939%, 60.310364%)" offset="1"/></linearGradient></defs><g clip-path="url(#id1)"><g clip-path="url(#id2)"><path fill="url(#id3)" d="M 156.570312 60.414062 L 156.570312 173.664062 L 218.066406 173.664062 L 218.066406 60.414062 Z M 156.570312 60.414062 " fill-rule="nonzero"/></g></g><g fill="#ffd450" fill-opacity="1"><g transform="translate(98.089138, 232.56884)"><g><path d="M 12.4375 -27.234375 C 15.945312 -27.234375 19.101562 -26.304688 21.90625 -24.453125 L 20.015625 -20.4375 C 17.253906 -22.113281 14.613281 -22.953125 12.09375 -22.953125 C 10.726562 -22.953125 9.648438 -22.707031 8.859375 -22.21875 C 8.078125 -21.726562 7.6875 -21.03125 7.6875 -20.125 C 7.6875 -19.226562 8.046875 -18.460938 8.765625 -17.828125 C 9.492188 -17.203125 10.394531 -16.738281 11.46875 -16.4375 C 12.550781 -16.144531 13.722656 -15.769531 14.984375 -15.3125 C 16.253906 -14.863281 17.425781 -14.390625 18.5 -13.890625 C 19.582031 -13.390625 20.476562 -12.601562 21.1875 -11.53125 C 21.894531 -10.46875 22.25 -9.175781 22.25 -7.65625 C 22.25 -5.28125 21.300781 -3.382812 19.40625 -1.96875 C 17.519531 -0.550781 15.070312 0.15625 12.0625 0.15625 C 10 0.15625 8 -0.226562 6.0625 -1 C 4.132812 -1.769531 2.445312 -2.816406 1 -4.140625 L 2.96875 -8.078125 C 4.332031 -6.816406 5.832031 -5.84375 7.46875 -5.15625 C 9.113281 -4.476562 10.671875 -4.140625 12.140625 -4.140625 C 13.734375 -4.140625 14.972656 -4.425781 15.859375 -5 C 16.742188 -5.582031 17.1875 -6.390625 17.1875 -7.421875 C 17.1875 -8.347656 16.828125 -9.125 16.109375 -9.75 C 15.390625 -10.382812 14.488281 -10.847656 13.40625 -11.140625 C 12.320312 -11.441406 11.148438 -11.804688 9.890625 -12.234375 C 8.628906 -12.660156 7.457031 -13.109375 6.375 -13.578125 C 5.289062 -14.054688 4.390625 -14.820312 3.671875 -15.875 C 2.953125 -16.9375 2.59375 -18.210938 2.59375 -19.703125 C 2.59375 -21.992188 3.492188 -23.820312 5.296875 -25.1875 C 7.097656 -26.550781 9.476562 -27.234375 12.4375 -27.234375 Z M 12.4375 -27.234375 "/></g></g></g><g fill="#ffd450" fill-opacity="1"><g transform="translate(128.038947, 232.56884)"><g><path d="M 22.875 -22.953125 L 8.109375 -22.953125 L 8.109375 -15.65625 L 21.328125 -15.65625 L 21.328125 -11.546875 L 8.109375 -11.546875 L 8.109375 -4.09375 L 23.34375 -4.09375 L 23.34375 0 L 3.5625 0 L 3.5625 -27.046875 L 22.875 -27.046875 Z M 22.875 -22.953125 "/></g></g></g><g fill="#ffd450" fill-opacity="1"><g transform="translate(159.3026, 232.56884)"><g><path d="M 20.71875 0 L 15.765625 -8.1875 C 15.503906 -8.164062 15.09375 -8.15625 14.53125 -8.15625 L 8.109375 -8.15625 L 8.109375 0 L 3.5625 0 L 3.5625 -27.046875 L 14.53125 -27.046875 C 17.976562 -27.046875 20.65625 -26.238281 22.5625 -24.625 C 24.46875 -23.019531 25.421875 -20.75 25.421875 -17.8125 C 25.421875 -15.644531 24.9375 -13.8125 23.96875 -12.3125 C 23.007812 -10.820312 21.628906 -9.734375 19.828125 -9.046875 L 25.890625 0 Z M 8.109375 -12.25 L 14.53125 -12.25 C 18.90625 -12.25 21.09375 -14.066406 21.09375 -17.703125 C 21.09375 -21.203125 18.90625 -22.953125 14.53125 -22.953125 L 8.109375 -22.953125 Z M 8.109375 -12.25 "/></g></g></g><g fill="#ffd450" fill-opacity="1"><g transform="translate(193.155313, 232.56884)"><g><path d="M 22.0625 -13.296875 L 26.046875 -13.296875 L 26.046875 -3.328125 C 24.648438 -2.265625 23.003906 -1.410156 21.109375 -0.765625 C 19.222656 -0.128906 17.363281 0.1875 15.53125 0.1875 C 11.539062 0.1875 8.171875 -1.128906 5.421875 -3.765625 C 2.679688 -6.410156 1.3125 -9.664062 1.3125 -13.53125 C 1.3125 -17.394531 2.703125 -20.632812 5.484375 -23.25 C 8.265625 -25.863281 11.703125 -27.171875 15.796875 -27.171875 C 17.703125 -27.171875 19.578125 -26.828125 21.421875 -26.140625 C 23.265625 -25.453125 24.859375 -24.53125 26.203125 -23.375 L 23.609375 -20.015625 C 21.390625 -22.078125 18.785156 -23.109375 15.796875 -23.109375 C 13.046875 -23.109375 10.71875 -22.179688 8.8125 -20.328125 C 6.90625 -18.472656 5.953125 -16.207031 5.953125 -13.53125 C 5.953125 -10.820312 6.910156 -8.539062 8.828125 -6.6875 C 10.742188 -4.832031 13.082031 -3.90625 15.84375 -3.90625 C 17.925781 -3.90625 20 -4.519531 22.0625 -5.75 Z M 22.0625 -13.296875 "/></g></g></g><g fill="#ffd450" fill-opacity="1"><g transform="translate(228.012727, 232.56884)"><g><path d="M 8.109375 0 L 3.5625 0 L 3.5625 -27.046875 L 8.109375 -27.046875 Z M 8.109375 0 "/></g></g></g><g fill="#ffd450" fill-opacity="1"><g transform="translate(245.596931, 232.56884)"><g><path d="M 5.4375 -23.25 C 8.195312 -25.863281 11.597656 -27.171875 15.640625 -27.171875 C 19.691406 -27.171875 23.09375 -25.863281 25.84375 -23.25 C 28.601562 -20.632812 29.984375 -17.394531 29.984375 -13.53125 C 29.984375 -9.664062 28.601562 -6.410156 25.84375 -3.765625 C 23.09375 -1.128906 19.691406 0.1875 15.640625 0.1875 C 11.597656 0.1875 8.195312 -1.128906 5.4375 -3.765625 C 2.6875 -6.410156 1.3125 -9.664062 1.3125 -13.53125 C 1.3125 -17.394531 2.6875 -20.632812 5.4375 -23.25 Z M 15.6875 -23.0625 C 13.007812 -23.0625 10.71875 -22.140625 8.8125 -20.296875 C 6.90625 -18.460938 5.953125 -16.203125 5.953125 -13.515625 C 5.953125 -10.835938 6.910156 -8.566406 8.828125 -6.703125 C 10.742188 -4.835938 13.03125 -3.90625 15.6875 -3.90625 C 18.34375 -3.90625 20.609375 -4.835938 22.484375 -6.703125 C 24.367188 -8.566406 25.3125 -10.835938 25.3125 -13.515625 C 25.3125 -16.203125 24.367188 -18.460938 22.484375 -20.296875 C 20.609375 -22.140625 18.34375 -23.0625 15.6875 -23.0625 Z M 15.6875 -23.0625 "/></g></g></g><g fill="#ffd450" fill-opacity="1"><g transform="translate(92.902124, 268.893708)"><g><path d="M 15.53125 -27.171875 C 17.4375 -27.171875 19.296875 -26.800781 21.109375 -26.0625 C 22.929688 -25.332031 24.5 -24.304688 25.8125 -22.984375 L 23.140625 -19.671875 C 22.160156 -20.722656 21 -21.554688 19.65625 -22.171875 C 18.320312 -22.796875 16.972656 -23.109375 15.609375 -23.109375 C 12.898438 -23.109375 10.613281 -22.1875 8.75 -20.34375 C 6.882812 -18.5 5.953125 -16.25 5.953125 -13.59375 C 5.953125 -10.914062 6.882812 -8.65625 8.75 -6.8125 C 10.613281 -4.976562 12.898438 -4.0625 15.609375 -4.0625 C 18.421875 -4.0625 20.929688 -5.128906 23.140625 -7.265625 L 25.84375 -4.25 C 24.457031 -2.882812 22.835938 -1.800781 20.984375 -1 C 19.128906 -0.207031 17.257812 0.1875 15.375 0.1875 C 11.40625 0.1875 8.066406 -1.128906 5.359375 -3.765625 C 2.660156 -6.410156 1.3125 -9.675781 1.3125 -13.5625 C 1.3125 -17.40625 2.679688 -20.632812 5.421875 -23.25 C 8.171875 -25.863281 11.539062 -27.171875 15.53125 -27.171875 Z M 15.53125 -27.171875 "/></g></g></g><g fill="#ffd450" fill-opacity="1"><g transform="translate(125.750119, 268.893708)"><g><path d="M 5.4375 -23.25 C 8.195312 -25.863281 11.597656 -27.171875 15.640625 -27.171875 C 19.691406 -27.171875 23.09375 -25.863281 25.84375 -23.25 C 28.601562 -20.632812 29.984375 -17.394531 29.984375 -13.53125 C 29.984375 -9.664062 28.601562 -6.410156 25.84375 -3.765625 C 23.09375 -1.128906 19.691406 0.1875 15.640625 0.1875 C 11.597656 0.1875 8.195312 -1.128906 5.4375 -3.765625 C 2.6875 -6.410156 1.3125 -9.664062 1.3125 -13.53125 C 1.3125 -17.394531 2.6875 -20.632812 5.4375 -23.25 Z M 15.6875 -23.0625 C 13.007812 -23.0625 10.71875 -22.140625 8.8125 -20.296875 C 6.90625 -18.460938 5.953125 -16.203125 5.953125 -13.515625 C 5.953125 -10.835938 6.910156 -8.566406 8.828125 -6.703125 C 10.742188 -4.835938 13.03125 -3.90625 15.6875 -3.90625 C 18.34375 -3.90625 20.609375 -4.835938 22.484375 -6.703125 C 24.367188 -8.566406 25.3125 -10.835938 25.3125 -13.515625 C 25.3125 -16.203125 24.367188 -18.460938 22.484375 -20.296875 C 20.609375 -22.140625 18.34375 -23.0625 15.6875 -23.0625 Z M 15.6875 -23.0625 "/></g></g></g><g fill="#ffd450" fill-opacity="1"><g transform="translate(162.964728, 268.893708)"><g><path d="M 20.71875 0 L 15.765625 -8.1875 C 15.503906 -8.164062 15.09375 -8.15625 14.53125 -8.15625 L 8.109375 -8.15625 L 8.109375 0 L 3.5625 0 L 3.5625 -27.046875 L 14.53125 -27.046875 C 17.976562 -27.046875 20.65625 -26.238281 22.5625 -24.625 C 24.46875 -23.019531 25.421875 -20.75 25.421875 -17.8125 C 25.421875 -15.644531 24.9375 -13.8125 23.96875 -12.3125 C 23.007812 -10.820312 21.628906 -9.734375 19.828125 -9.046875 L 25.890625 0 Z M 8.109375 -12.25 L 14.53125 -12.25 C 18.90625 -12.25 21.09375 -14.066406 21.09375 -17.703125 C 21.09375 -21.203125 18.90625 -22.953125 14.53125 -22.953125 L 8.109375 -22.953125 Z M 8.109375 -12.25 "/></g></g></g><g fill="#ffd450" fill-opacity="1"><g transform="translate(196.817438, 268.893708)"><g><path d="M 22.03125 -22.953125 L 13.453125 -22.953125 L 13.453125 0 L 8.890625 0 L 8.890625 -22.953125 L 0.34375 -22.953125 L 0.34375 -27.046875 L 22.03125 -27.046875 Z M 22.03125 -22.953125 "/></g></g></g><g fill="#ffd450" fill-opacity="1"><g transform="translate(225.10561, 268.893708)"><g><path d="M 22.875 -22.953125 L 8.109375 -22.953125 L 8.109375 -15.65625 L 21.328125 -15.65625 L 21.328125 -11.546875 L 8.109375 -11.546875 L 8.109375 -4.09375 L 23.34375 -4.09375 L 23.34375 0 L 3.5625 0 L 3.5625 -27.046875 L 22.875 -27.046875 Z M 22.875 -22.953125 "/></g></g></g><g fill="#ffd450" fill-opacity="1"><g transform="translate(256.369269, 268.893708)"><g><path d="M 24.078125 -23.765625 L 7.609375 -4.09375 L 24.265625 -4.09375 L 24.265625 0 L 1.4375 0 L 1.4375 -3.28125 L 17.921875 -22.953125 L 1.9375 -22.953125 L 1.9375 -27.046875 L 24.078125 -27.046875 Z M 24.078125 -23.765625 "/></g></g></g><g fill="#ffd450" fill-opacity="1"><g transform="translate(116.888668, 303.164891)"><g><path d="M 12.984375 0 L 11.0625 0 L 8.40625 -8.734375 L 5.71875 0 L 3.765625 0 L 0.046875 -11.203125 L 2.078125 -11.203125 L 4.796875 -2.09375 L 7.5 -11.1875 L 9.359375 -11.203125 L 12.078125 -2.09375 L 14.78125 -11.203125 L 16.734375 -11.203125 Z M 12.984375 0 "/></g></g></g><g fill="#ffd450" fill-opacity="1"><g transform="translate(133.460684, 303.164891)"><g><path d="M 9.46875 -9.5 L 3.359375 -9.5 L 3.359375 -6.484375 L 8.828125 -6.484375 L 8.828125 -4.78125 L 3.359375 -4.78125 L 3.359375 -1.703125 L 9.65625 -1.703125 L 9.65625 0 L 1.46875 0 L 1.46875 -11.203125 L 9.46875 -11.203125 Z M 9.46875 -9.5 "/></g></g></g><g fill="#ffd450" fill-opacity="1"><g transform="translate(143.954161, 303.164891)"><g><path d="M 1.46875 -11.203125 L 6.34375 -11.203125 C 7.5 -11.203125 8.410156 -10.953125 9.078125 -10.453125 C 9.753906 -9.960938 10.09375 -9.28125 10.09375 -8.40625 C 10.09375 -7.769531 9.914062 -7.226562 9.5625 -6.78125 C 9.21875 -6.34375 8.738281 -6.050781 8.125 -5.90625 C 8.875 -5.78125 9.460938 -5.460938 9.890625 -4.953125 C 10.316406 -4.453125 10.53125 -3.828125 10.53125 -3.078125 C 10.53125 -2.109375 10.164062 -1.351562 9.4375 -0.8125 C 8.71875 -0.269531 7.722656 0 6.453125 0 L 1.46875 0 Z M 3.359375 -9.515625 L 3.359375 -6.5625 L 6.234375 -6.5625 C 6.835938 -6.5625 7.304688 -6.691406 7.640625 -6.953125 C 7.984375 -7.222656 8.15625 -7.59375 8.15625 -8.0625 C 8.15625 -8.53125 7.988281 -8.890625 7.65625 -9.140625 C 7.320312 -9.390625 6.847656 -9.515625 6.234375 -9.515625 Z M 3.359375 -4.890625 L 3.359375 -1.6875 L 6.234375 -1.6875 C 6.984375 -1.6875 7.5625 -1.828125 7.96875 -2.109375 C 8.382812 -2.390625 8.59375 -2.789062 8.59375 -3.3125 C 8.59375 -3.800781 8.382812 -4.1875 7.96875 -4.46875 C 7.550781 -4.75 6.972656 -4.890625 6.234375 -4.890625 Z M 3.359375 -4.890625 "/></g></g></g><g fill="#ffd450" fill-opacity="1"><g transform="translate(155.247453, 303.164891)"><g/></g></g><g fill="#ffd450" fill-opacity="1"><g transform="translate(159.374467, 303.164891)"><g><path d="M 1.46875 -11.203125 L 6.0625 -11.203125 C 7.738281 -11.203125 9.125 -10.671875 10.21875 -9.609375 C 11.3125 -8.554688 11.859375 -7.21875 11.859375 -5.59375 C 11.859375 -3.976562 11.304688 -2.640625 10.203125 -1.578125 C 9.109375 -0.523438 7.710938 0 6.015625 0 L 1.46875 0 Z M 3.359375 -9.5 L 3.359375 -1.703125 L 6.109375 -1.703125 C 7.210938 -1.703125 8.128906 -2.066406 8.859375 -2.796875 C 9.585938 -3.523438 9.953125 -4.453125 9.953125 -5.578125 C 9.953125 -6.710938 9.578125 -7.648438 8.828125 -8.390625 C 8.078125 -9.128906 7.144531 -9.5 6.03125 -9.5 Z M 3.359375 -9.5 "/></g></g></g><g fill="#ffd450" fill-opacity="1"><g transform="translate(171.771484, 303.164891)"><g><path d="M 9.46875 -9.5 L 3.359375 -9.5 L 3.359375 -6.484375 L 8.828125 -6.484375 L 8.828125 -4.78125 L 3.359375 -4.78125 L 3.359375 -1.703125 L 9.65625 -1.703125 L 9.65625 0 L 1.46875 0 L 1.46875 -11.203125 L 9.46875 -11.203125 Z M 9.46875 -9.5 "/></g></g></g><g fill="#ffd450" fill-opacity="1"><g transform="translate(182.264961, 303.164891)"><g><path d="M 6.46875 0 L 4.515625 0 L 0.046875 -11.203125 L 2.078125 -11.203125 L 5.53125 -2.09375 L 9.03125 -11.203125 L 10.984375 -11.203125 Z M 6.46875 0 "/></g></g></g><g fill="#ffd450" fill-opacity="1"><g transform="translate(193.302306, 303.164891)"><g><path d="M 9.46875 -9.5 L 3.359375 -9.5 L 3.359375 -6.484375 L 8.828125 -6.484375 L 8.828125 -4.78125 L 3.359375 -4.78125 L 3.359375 -1.703125 L 9.65625 -1.703125 L 9.65625 0 L 1.46875 0 L 1.46875 -11.203125 L 9.46875 -11.203125 Z M 9.46875 -9.5 "/></g></g></g><g fill="#ffd450" fill-opacity="1"><g transform="translate(203.795782, 303.164891)"><g><path d="M 3.359375 -1.71875 L 8.203125 -1.71875 L 8.203125 0 L 1.46875 0 L 1.46875 -11.203125 L 3.359375 -11.203125 Z M 3.359375 -1.71875 "/></g></g></g><g fill="#ffd450" fill-opacity="1"><g transform="translate(212.337732, 303.164891)"><g><path d="M 2.25 -9.625 C 3.394531 -10.707031 4.800781 -11.25 6.46875 -11.25 C 8.144531 -11.25 9.554688 -10.707031 10.703125 -9.625 C 11.847656 -8.539062 12.421875 -7.195312 12.421875 -5.59375 C 12.421875 -4 11.847656 -2.65625 10.703125 -1.5625 C 9.554688 -0.46875 8.144531 0.078125 6.46875 0.078125 C 4.800781 0.078125 3.394531 -0.46875 2.25 -1.5625 C 1.113281 -2.65625 0.546875 -4 0.546875 -5.59375 C 0.546875 -7.195312 1.113281 -8.539062 2.25 -9.625 Z M 6.5 -9.546875 C 5.382812 -9.546875 4.429688 -9.164062 3.640625 -8.40625 C 2.859375 -7.644531 2.46875 -6.707031 2.46875 -5.59375 C 2.46875 -4.488281 2.863281 -3.546875 3.65625 -2.765625 C 4.445312 -1.992188 5.390625 -1.609375 6.484375 -1.609375 C 7.585938 -1.609375 8.53125 -1.992188 9.3125 -2.765625 C 10.09375 -3.546875 10.484375 -4.488281 10.484375 -5.59375 C 10.484375 -6.707031 10.09375 -7.644531 9.3125 -8.40625 C 8.53125 -9.164062 7.59375 -9.546875 6.5 -9.546875 Z M 6.5 -9.546875 "/></g></g></g><g fill="#ffd450" fill-opacity="1"><g transform="translate(225.294617, 303.164891)"><g><path d="M 1.46875 -11.203125 L 5.9375 -11.203125 C 7.34375 -11.203125 8.429688 -10.867188 9.203125 -10.203125 C 9.984375 -9.535156 10.375 -8.59375 10.375 -7.375 C 10.375 -6.101562 9.984375 -5.117188 9.203125 -4.421875 C 8.429688 -3.722656 7.34375 -3.375 5.9375 -3.375 L 3.359375 -3.375 L 3.359375 0 L 1.46875 0 Z M 3.359375 -9.5 L 3.359375 -5.078125 L 5.859375 -5.078125 C 7.660156 -5.078125 8.5625 -5.828125 8.5625 -7.328125 C 8.5625 -8.773438 7.660156 -9.5 5.859375 -9.5 Z M 3.359375 -9.5 "/></g></g></g><g fill="#ffd450" fill-opacity="1"><g transform="translate(236.060027, 303.164891)"><g><path d="M 9.46875 -9.5 L 3.359375 -9.5 L 3.359375 -6.484375 L 8.828125 -6.484375 L 8.828125 -4.78125 L 3.359375 -4.78125 L 3.359375 -1.703125 L 9.65625 -1.703125 L 9.65625 0 L 1.46875 0 L 1.46875 -11.203125 L 9.46875 -11.203125 Z M 9.46875 -9.5 "/></g></g></g><g fill="#ffd450" fill-opacity="1"><g transform="translate(246.553504, 303.164891)"><g><path d="M 8.578125 0 L 6.53125 -3.390625 C 6.425781 -3.378906 6.253906 -3.375 6.015625 -3.375 L 3.359375 -3.375 L 3.359375 0 L 1.46875 0 L 1.46875 -11.203125 L 6.015625 -11.203125 C 7.441406 -11.203125 8.550781 -10.867188 9.34375 -10.203125 C 10.132812 -9.535156 10.53125 -8.59375 10.53125 -7.375 C 10.53125 -6.476562 10.328125 -5.71875 9.921875 -5.09375 C 9.523438 -4.476562 8.953125 -4.03125 8.203125 -3.75 L 10.71875 0 Z M 3.359375 -5.078125 L 6.015625 -5.078125 C 7.828125 -5.078125 8.734375 -5.828125 8.734375 -7.328125 C 8.734375 -8.773438 7.828125 -9.5 6.015625 -9.5 L 3.359375 -9.5 Z M 3.359375 -5.078125 "/></g></g></g></svg>